<svg xmlns="http://www.w3.org/2000/svg" width="825.38007" height="591.10449" viewBox="0 0 825.38007 591.10449">
  <g>
    <path d="M727.38617,244.89551h.75881a19.80742,19.80742,0,0,1,19.80743,19.80742V465.43312A60.60866,60.60866,0,0,1,734.621,504.28483q-16.76464,21.33381-46.84968,21.3294a66.37806,66.37806,0,0,1-22.85356-3.6174,55.18519,55.18519,0,0,1-7.641-3.459,20.29546,20.29546,0,0,0-19.7773.04478,54.80758,54.80758,0,0,1-7.43447,3.41419,64.78064,64.78064,0,0,1-22.66166,3.6174q-30.095,0-46.4703-20.95a62.06038,62.06038,0,0,1-13.71081-39.23109V264.70293a19.80742,19.80742,0,0,1,19.80743-19.80742h.75881a19.80742,19.80742,0,0,1,19.80743,19.80742v200.3508q0,8.76116,4.38057,14.474,4.374,5.71064,15.42687,5.71284,11.04078,0,15.61656-5.90694a22.03745,22.03745,0,0,0,4.57028-13.9005V264.70293a19.80741,19.80741,0,0,1,19.80742-19.80742h.37943a19.80741,19.80741,0,0,1,19.80742,19.80742v200.3508q0,8.76116,4.38058,14.474,4.374,5.71064,15.80626,5.71284,10.66028,0,15.99815-6.476,3.80157-4.94966,3.80929-13.33142V264.70293A19.80742,19.80742,0,0,1,727.38617,244.89551Z" transform="translate(-546.8208 -244.89551)"/>
    <path d="M891.166,305.07662v160.3565a60.62106,60.62106,0,0,1-13.33143,38.85171q-16.76464,21.33381-46.84968,21.3294-30.095,0-46.4703-20.95a62.06038,62.06038,0,0,1-13.71081-39.23109V305.07662q0-22.472,13.33142-39.23551,16.37092-20.94339,46.84969-20.9456,30.085,0,46.46809,20.9456A61.07505,61.07505,0,0,1,891.166,305.07662Zm-40.37587,0q0-8.37736-3.80709-13.33143-5.34008-6.85541-15.99815-6.8554-11.054,0-15.61656,5.90253a22.63962,22.63962,0,0,0-4.57248,14.2843V465.05373q0,8.76116,4.38058,14.474,4.374,5.71064,15.80846,5.71284,10.657,0,15.99815-6.476,3.80157-4.94966,3.80709-13.33142Z" transform="translate(-546.8208 -244.89551)"/>
    <path d="M1034.37955,305.07662v20.18685a19.80743,19.80743,0,0,1-19.80743,19.80743h-.761a19.80743,19.80743,0,0,1-19.80743-19.80743V305.07662q0-8.37736-3.80709-13.33143-5.34006-6.85541-15.99815-6.8554-11.054,0-15.61656,5.90253a22.63962,22.63962,0,0,0-4.57248,14.2843V505.8068A19.80742,19.80742,0,0,1,934.202,525.61423h-.37722a19.80743,19.80743,0,0,1-19.80743-19.80743V305.07662q0-22.472,13.33143-39.23551,16.37091-20.94339,46.84968-20.9456,30.085,0,46.46809,20.9456A61.07505,61.07505,0,0,1,1034.37955,305.07662Z" transform="translate(-546.8208 -244.89551)"/>
    <path d="M1157.02468,244.89551h.761a19.80741,19.80741,0,0,1,19.80742,19.80742V405.252q0,12.94983-3.6196,22.472a56.30212,56.30212,0,0,1-3.69548,7.82565,20.51163,20.51163,0,0,0-.25844,20.05677,58.25777,58.25777,0,0,1,3.95392,9.06354,63.9803,63.9803,0,0,1,3.6196,20.57063V505.8068a19.80742,19.80742,0,0,1-19.80742,19.80743h-.761a19.80743,19.80743,0,0,1-19.80743-19.80743V485.62q0-8.37075-3.80708-13.33143-5.34008-6.8554-15.99816-6.8554h-.38161a19.80741,19.80741,0,0,0-19.80742,19.80742V505.8068a19.80743,19.80743,0,0,1-19.80743,19.80743h-.37722a19.80743,19.80743,0,0,1-19.80743-19.80743V264.70293a19.80742,19.80742,0,0,1,19.80743-19.80742h.37722a19.80742,19.80742,0,0,1,19.80743,19.80742V405.63141a19.80742,19.80742,0,0,0,19.80742,19.80743h0q8.374,0,13.33143-3.80709,6.85541-4.94966,6.8554-16.37974V264.70293A19.80742,19.80742,0,0,1,1157.02468,244.89551Z" transform="translate(-546.8208 -244.89551)"/>
  </g>
  <g>
    <path d="M667.183,615.46239v19.99826a19.996,19.996,0,0,1-19.996,19.996h-.38383a19.996,19.996,0,0,1-19.996-19.996V615.46239q0-8.37735-3.80709-13.33142-5.34006-6.85542-15.99815-6.85541-11.054,0-15.61656,5.90253a22.63964,22.63964,0,0,0-4.57248,14.2843v40.1851a19.996,19.996,0,0,0,19.996,19.996h20.19128a19.996,19.996,0,0,1,19.996,19.996v.00224a19.996,19.996,0,0,1-19.996,19.996H606.80889a19.996,19.996,0,0,0-19.996,19.996V816.004A19.996,19.996,0,0,1,566.81686,836h0a19.996,19.996,0,0,1-19.996-19.996V615.46239q0-22.472,13.33143-39.23551,16.37091-20.94339,46.84968-20.9456,30.085,0,46.46809,20.9456A61.07505,61.07505,0,0,1,667.183,615.46239Z" transform="translate(-546.8208 -244.89551)"/>
    <path d="M710.03149,555.28128h.37943A19.99713,19.99713,0,0,1,730.408,575.2784v0a19.99713,19.99713,0,0,1-19.99712,19.99712h-.37943a19.99713,19.99713,0,0,1-19.99712-19.99712v0A19.99713,19.99713,0,0,1,710.03149,555.28128Zm0,60.18111h.37943A19.99713,19.99713,0,0,1,730.408,635.45951V816.00288A19.99713,19.99713,0,0,1,710.41092,836h-.37943a19.99713,19.99713,0,0,1-19.99712-19.99712V635.45951A19.99713,19.99713,0,0,1,710.03149,615.46239Z" transform="translate(-546.8208 -244.89551)"/>
    <path d="M873.6194,615.46239V816.004A19.996,19.996,0,0,1,853.62339,836h-.38384a19.996,19.996,0,0,1-19.996-19.996V615.46239q0-8.37735-3.80708-13.33142-5.34008-6.85542-15.99816-6.85541-11.054,0-15.61656,5.90253a22.63969,22.63969,0,0,0-4.57247,14.2843V816.004A19.996,19.996,0,0,1,773.25324,836h0a19.996,19.996,0,0,1-19.996-19.996V615.46239q0-22.472,13.33143-39.23551,16.37092-20.94339,46.84968-20.9456,30.085,0,46.4681,20.9456A61.0751,61.0751,0,0,1,873.6194,615.46239Z" transform="translate(-546.8208 -244.89551)"/>
    <path d="M1016.833,615.46239v160.3565a60.621,60.621,0,0,1-13.33143,38.85171Q986.73691,836.00441,956.65187,836h-39.9921a20.189,20.189,0,0,1-20.189-20.189V615.46239q0-22.472,13.33142-39.23551,16.37093-20.94339,46.84969-20.9456,30.085,0,46.46809,20.9456A61.07505,61.07505,0,0,1,1016.833,615.46239Zm-40.37587,0q0-8.37735-3.80709-13.33142-5.34008-6.85542-15.99815-6.85541-11.054,0-15.61656,5.90253a22.63964,22.63964,0,0,0-4.57248,14.2843V775.43732a20.189,20.189,0,0,0,20.189,20.189h0q10.657,0,15.99815-6.476,3.80157-4.94965,3.80709-13.33143Z" transform="translate(-546.8208 -244.89551)"/>
    <path d="M1160.04655,615.46239V715.63778a60.62965,60.62965,0,0,1-13.33143,38.85171q-16.76464,21.33381-46.84968,21.3294h-7.93882a9.04016,9.04016,0,0,0-5.77422,15.99593l0,0q4.94636,3.8115,13.713,3.8115h18.51489a21.47939,21.47939,0,0,1,21.47939,21.47939v0A18.89424,18.89424,0,0,1,1120.96548,836h-21.1q-22.47858,0-39.2333-13.33143-20.95-16.37091-20.94781-46.84968V615.46239q0-22.472,13.33143-39.23551,16.37091-20.94339,46.84968-20.9456,30.085,0,46.46809,20.9456A61.07505,61.07505,0,0,1,1160.04655,615.46239Zm-40.37587,0q0-8.37735-3.80709-13.33142-5.34007-6.85542-15.99815-6.85541-11.054,0-15.61656,5.90253a22.63964,22.63964,0,0,0-4.57248,14.2843V726.62033a9.20428,9.20428,0,0,0,9.20428,9.20428h10.98476q10.657,0,15.99815-6.476,3.80157-4.943,3.80709-13.71081Z" transform="translate(-546.8208 -244.89551)"/>
    <path d="M1303.26012,615.46239v19.99826a19.996,19.996,0,0,1-19.996,19.996h-.38384a19.996,19.996,0,0,1-19.996-19.996V615.46239q0-8.37735-3.80709-13.33142-5.34006-6.85542-15.99815-6.85541-11.054,0-15.61656,5.90253a22.63964,22.63964,0,0,0-4.57248,14.2843V816.004A19.996,19.996,0,0,1,1202.894,836h0a19.996,19.996,0,0,1-19.996-19.996V615.46239q0-22.472,13.33143-39.23551,16.37091-20.94339,46.84968-20.9456,30.08505,0,46.46809,20.9456A61.07505,61.07505,0,0,1,1303.26012,615.46239Z" transform="translate(-546.8208 -244.89551)"/>
    <path d="M1351.63176,793.72059c27.42383,0,27.80542,41.9-1.14257,41.9-13.713,0-20.57063-10.28752-20.57063-20.95C1329.91856,804.0037,1336.77617,793.72059,1351.63176,793.72059Z" transform="translate(-546.8208 -244.89551)"/>
  </g>
</svg>
